<?xml version="1.0" standalone="no"?>
<!DOCTYPE svg PUBLIC "-//W3C//DTD SVG 20010904//EN"
 "http://www.w3.org/TR/2001/REC-SVG-20010904/DTD/svg10.dtd">
<svg version="1.0" xmlns="http://www.w3.org/2000/svg"
 width="956.000000pt" height="956.000000pt" viewBox="0 0 956.000000 956.000000"
 preserveAspectRatio="xMidYMid meet">
<metadata>
Created by potrace 1.11, written by Peter Selinger 2001-2013
</metadata>
<g transform="translate(0.000000,956.000000) scale(0.100000,-0.100000)"
fill="#000000" stroke="none">
<path d="M4845 8770 c-318 -45 -556 -230 -615 -479 -17 -74 -8 -211 20 -284
12 -31 37 -81 57 -109 34 -51 34 -53 18 -78 -42 -64 -108 -219 -132 -307 -23
-86 -26 -118 -26 -253 0 -136 3 -167 26 -253 30 -114 103 -272 170 -369 l47
-68 -2023 -2 -2022 -3 -3 -2633 -2 -2632 -70 0 -70 0 2 -248 3 -247 4533 -3
4532 -2 0 250 0 250 -75 0 -75 0 -2 2632 -3 2633 -968 3 -968 2 21 30 c42 59
111 221 136 317 28 111 40 269 27 360 l-10 62 54 37 c30 21 76 62 103 92 296
332 100 800 -397 948 -67 20 -118 27 -216 31 -156 7 -249 -7 -376 -54 l-94
-35 -91 31 c-192 65 -400 101 -594 101 l-124 0 -63 58 c-108 98 -263 177 -405
206 -97 20 -248 27 -325 16z m1148 -580 c514 -88 909 -404 1023 -820 25 -92
25 -290 0 -385 -34 -130 -97 -248 -194 -362 l-44 -53 -973 0 -973 0 -65 73
c-240 270 -312 564 -212 867 113 341 465 604 920 684 123 22 379 20 518 -4z
m-938 -3712 c-9 -54 -26 -86 -62 -119 -40 -38 -86 -59 -128 -59 -33 0 -36 2
-30 23 31 100 115 174 223 196 2 1 1 -18 -3 -41z m-315 -248 c94 -25 119 -25
198 0 92 29 215 28 272 -3 24 -12 53 -35 64 -50 l20 -27 -22 -16 c-28 -19 -67
-86 -91 -157 -29 -82 -17 -114 74 -204 l73 -73 -31 -62 c-34 -70 -135 -176
-185 -197 -29 -12 -43 -11 -121 8 -108 26 -147 26 -247 1 -106 -28 -122 -28
-182 5 -107 58 -203 190 -238 326 -19 74 -22 180 -6 234 30 103 117 198 206
224 52 15 137 12 216 -9z"/>
<path d="M5888 8134 c-34 -18 -35 -20 -134 -469 -42 -192 -82 -355 -88 -361
-6 -6 -171 -37 -366 -68 -194 -32 -359 -60 -365 -63 -57 -32 -71 -90 -34 -136
43 -55 56 -55 502 18 224 36 418 70 432 75 13 5 31 20 40 34 17 25 205 845
205 892 0 36 -16 61 -50 79 -37 19 -107 19 -142 -1z"/>
</g>
</svg>
